<?xml version="1.0" encoding="UTF-8" standalone="no"?>
<svg
   xmlns:dc="http://purl.org/dc/elements/1.1/"
   xmlns:cc="http://creativecommons.org/ns#"
   xmlns:rdf="http://www.w3.org/1999/02/22-rdf-syntax-ns#"
   xmlns:svg="http://www.w3.org/2000/svg"
   xmlns="http://www.w3.org/2000/svg"
   xmlns:sodipodi="http://sodipodi.sourceforge.net/DTD/sodipodi-0.dtd"
   xmlns:inkscape="http://www.inkscape.org/namespaces/inkscape"
   height="101"
   viewBox="0 0 198 101"
   width="198"
   version="1.1"
   id="svg44"
   sodipodi:docname="sdg.svg"
   inkscape:version="1.0.2 (394de47547, 2021-03-26)">
  <metadata
     id="metadata50">
    <rdf:RDF>
      <cc:Work
         rdf:about="">
        <dc:format>image/svg+xml</dc:format>
        <dc:type
           rdf:resource="http://purl.org/dc/dcmitype/StillImage" />
      </cc:Work>
    </rdf:RDF>
  </metadata>
  <defs
     id="defs48" />
  <sodipodi:namedview
     pagecolor="#ffffff"
     bordercolor="#666666"
     borderopacity="1"
     objecttolerance="10"
     gridtolerance="10"
     guidetolerance="10"
     inkscape:pageopacity="0"
     inkscape:pageshadow="2"
     inkscape:window-width="1920"
     inkscape:window-height="957"
     id="namedview46"
     showgrid="false"
     inkscape:zoom="2.5195143"
     inkscape:cx="221.22324"
     inkscape:cy="96.45187"
     inkscape:window-x="0"
     inkscape:window-y="0"
     inkscape:window-maximized="1"
     inkscape:current-layer="svg44" />
  <g
     fill="none"
     fill-rule="evenodd"
     id="g42">
    <path
       d="m0 0h195.834v99h-195.834z"
       fill="#f1f1f1"
       transform="translate(1.164 1)"
       id="path2"
       style="fill:none" />
    <g
       fill-rule="nonzero"
       transform="translate(58.212 10.196)"
       id="g40">
      <path
         d="m27.958 18.974c.628-1.131 1.445-2.136 2.388-3.079l-7.791-8.544c-1.948 1.885-3.644 4.02-4.963 6.408z"
         fill="#56c22b"
         id="path4" />
      <path
         d="m47.058 12.942c1.193.566 2.261 1.257 3.267 2.01l7.79-8.48c-2.073-1.76-4.398-3.205-6.91-4.336z"
         fill="#dda63a"
         id="path6" />
      <path
         d="m64.9 15.518-10.302 5.152c.503 1.131.817 2.388 1.005 3.644l11.497-1.068c-.377-2.764-1.131-5.34-2.2-7.728"
         fill="#c5192d"
         id="path8" />
      <path
         d="m53.78 19.162 10.304-5.152c-1.257-2.387-2.89-4.523-4.838-6.408l-7.79 8.482c.942.942 1.696 1.947 2.324 3.078"
         fill="#4c9f38"
         id="path10" />
      <path
         d="m25.948 26.513v-.691l-11.498-1.005c-.063.565-.063 1.13-.063 1.696 0 2.2.252 4.335.754 6.408l11.12-3.204c-.188-1.068-.313-2.136-.313-3.204"
         fill="#3f7e44"
         id="path12" />
      <path
         d="m52.335 35.937c-.817 1.005-1.759 1.885-2.827 2.639l6.094 9.801c2.262-1.508 4.272-3.393 5.969-5.529l-9.236-6.91z"
         fill="#fcc30b"
         id="path14" />
      <path
         d="m55.728 26.513c0 1.068-.126 2.136-.314 3.141l11.12 3.205c.503-2.01.754-4.147.754-6.346 0-.565 0-1.068-.063-1.633l-11.497 1.068z"
         fill="#ff3a21"
         id="path16" />
      <path
         d="m29.529 36.126-9.173 6.974c1.696 2.073 3.707 3.958 5.969 5.403l6.094-9.801c-1.131-.691-2.073-1.571-2.89-2.576"
         fill="#fd9d24"
         id="path18" />
      <path
         d="m26.136 24.126c.189-1.32.566-2.513 1.131-3.707l-10.304-5.152c-1.13 2.45-1.947 5.026-2.261 7.79z"
         fill="#0a97d9"
         id="path20" />
      <path
         d="m54.22 49.257-6.031-9.801c-1.131.628-2.262 1.13-3.519 1.445l2.136 11.371c2.64-.628 5.152-1.633 7.414-3.015"
         fill="#a21942"
         id="path22" />
      <path
         d="m54.974 31.288c-.377 1.194-.943 2.325-1.634 3.33l9.236 6.974c1.508-2.136 2.702-4.524 3.518-7.1z"
         fill="#26bde2"
         id="path24" />
      <path
         d="m42.974 41.215c-.691.125-1.445.125-2.136.125-.566 0-1.194-.062-1.76-.125l-2.136 11.371c1.257.189 2.576.315 3.896.315 1.445 0 2.89-.126 4.272-.377l-2.136-11.31z"
         fill="#fd6925"
         id="path26" />
      <path
         d="m41.78 11.623c1.257.063 2.513.314 3.707.691l4.147-10.743c-2.45-.881-5.09-1.383-7.854-1.508z"
         fill="#e5243b"
         id="path28" />
      <path
         d="m37.445 41.026c-1.32-.314-2.513-.754-3.644-1.382l-6.094 9.801c2.324 1.32 4.9 2.325 7.602 2.89z"
         fill="#dd1367"
         id="path30" />
      <path
         d="m36.377 12.251c1.194-.377 2.45-.628 3.77-.69v-11.561c-2.765.063-5.466.565-7.917 1.445z"
         fill="#19486a"
         id="path32" />
      <path
         d="m28.46 34.806c-.753-1.068-1.319-2.261-1.758-3.518l-11.12 3.204c.816 2.639 2.072 5.09 3.643 7.351l9.236-7.037z"
         fill="#bf8b2e"
         id="path34" />
      <path
         d="m31.602 14.827c1.005-.754 2.073-1.445 3.204-1.947l-4.146-10.744c-2.513 1.068-4.775 2.45-6.786 4.147z"
         fill="#00689d"
         id="path36" />
      <path
         d="m.063 60.88h4.775v1.445h-1.508v9.235h-1.822v-9.235h-1.508zm8.984 5.968h-1.759v4.712h-1.822v-10.68h1.822v4.523h1.76v-4.523h1.821v10.68h-1.822zm2.765-5.968h4.272v1.445h-2.514v3.078h1.759v1.445h-1.76v3.267h2.514v1.445h-4.272v-10.68zm9.298 4.963h2.576v5.717h-1.32v-1.193c-.25.816-.753 1.319-1.696 1.319-1.57 0-2.262-1.257-2.262-2.89v-5.152c0-1.696.817-2.89 2.702-2.89 2.01 0 2.576 1.13 2.576 2.702v.942h-1.634v-1.068c0-.691-.25-1.068-.88-1.068-.627 0-.942.44-.942 1.13v5.718c0 .628.252 1.13.88 1.13.565 0 .88-.313.88-1.004v-1.886h-.88v-1.508zm3.518-4.963h1.822v9.235h2.136v1.445h-3.958zm4.273 7.916v-5.152c0-1.696.816-2.89 2.701-2.89s2.702 1.194 2.702 2.89v5.152c0 1.633-.817 2.89-2.702 2.89s-2.701-1.257-2.701-2.89zm3.644.251v-5.717c0-.628-.315-1.131-.943-1.131s-.942.44-.942 1.13v5.718c0 .628.314 1.131.942 1.131.691 0 .943-.44.943-1.13zm2.701-8.167h2.576c1.822 0 2.387.816 2.387 2.324v1.068c0 .88-.314 1.445-1.068 1.697.88.188 1.32.816 1.32 1.759v1.445c0 1.508-.691 2.324-2.45 2.324h-2.765zm1.76 4.46h.628c.565 0 .88-.314.88-.88v-1.319c0-.565-.252-.88-.88-.88h-.629v3.08zm0 1.383v3.33h.816c.628 0 .88-.315.88-.88v-1.634c0-.565-.252-.88-.88-.88h-.817v.064zm3.832 4.837 2.01-10.68h2.074l2.01 10.68h-1.822l-.314-1.947h-1.886l-.314 1.947h-1.76zm2.262-3.392h1.445l-.692-4.273zm4.46-7.288h1.822v9.235h2.136v1.445h-3.958zm8.796 4.963h2.576v5.717h-1.32v-1.193c-.25.816-.753 1.319-1.696 1.319-1.57 0-2.261-1.257-2.261-2.89v-5.152c0-1.696.816-2.89 2.701-2.89 2.01 0 2.576 1.13 2.576 2.702v.942h-1.634v-1.068c0-.691-.25-1.068-.88-1.068-.627 0-.942.44-.942 1.13v5.718c0 .628.252 1.13.88 1.13.566 0 .88-.313.88-1.004v-1.886h-.88v-1.508zm3.456 2.953v-5.152c0-1.696.816-2.89 2.701-2.89s2.702 1.194 2.702 2.89v5.152c0 1.633-.817 2.89-2.702 2.89s-2.701-1.257-2.701-2.89zm3.644.251v-5.717c0-.628-.315-1.131-.943-1.131s-.942.44-.942 1.13v5.718c0 .628.314 1.131.942 1.131.691 0 .943-.44.943-1.13zm2.136 2.513 2.01-10.68h2.073l2.01 10.68h-1.821l-.314-1.947h-1.885l-.314 1.947h-1.76zm2.261-3.392h1.445l-.69-4.273zm4.461-7.288h1.822v9.235h2.136v1.445h-3.958zm4.335 8.356v-1.446h1.697v1.445c0 .628.25.942.88.942.565 0 .816-.377.816-.942v-.44c0-.628-.251-1.005-.817-1.508l-1.068-1.068c-1.005-1.005-1.508-1.634-1.508-2.827v-.377c0-1.32.754-2.325 2.513-2.325 1.822 0 2.513.88 2.513 2.45v.88h-1.633v-.942c0-.629-.314-.943-.88-.943-.502 0-.88.314-.88.88v.251c0 .628.315.942.88 1.445l1.131 1.131c1.006 1.005 1.445 1.57 1.445 2.764v.503c0 1.445-.816 2.513-2.638 2.513-1.76.063-2.45-1.005-2.45-2.387zm-72.817 7.288h-2.136v2.387h-.44v-4.963h2.828v.44h-2.388v1.759h2.136zm1.885 2.45c-1.13 0-1.382-.691-1.382-1.696 0-1.006.251-1.697 1.382-1.697s1.382.691 1.382 1.697c0 1.005-.25 1.696-1.382 1.696zm0-3.016c-.88 0-.942.566-.942 1.32 0 .753.063 1.319.942 1.319.88 0 .943-.566.943-1.32 0-.753-.126-1.319-.943-1.319zm3.958.063c-.125-.063-.25-.063-.377-.063-.44 0-.69.063-.942.189v2.764h-.44v-3.33h.252l.125.252c.314-.252.691-.315 1.068-.315.126 0 .252 0 .377.063v.44zm2.137-.754c0 .691.44.754 1.193.88 1.005.125 1.57.377 1.57 1.319 0 .691-.376 1.508-1.821 1.508-.44 0-1.068-.126-1.382-.251v-.44c.314.125.69.251 1.382.251 1.005 0 1.32-.503 1.32-1.068 0-.691-.315-.817-1.132-.942-1.193-.126-1.633-.44-1.633-1.257 0-.565.251-1.382 1.696-1.382.629 0 1.005.126 1.32.251v.44c-.44-.188-.817-.251-1.32-.251-1.005 0-1.193.44-1.193.942zm3.832 2.764c0 .44.251.566.691.566s.628-.063.88-.189v-2.764h.44v3.33h-.252l-.125-.251c-.315.25-.629.314-1.006.314-.816 0-1.13-.377-1.13-1.006v-2.387h.44zm4.02-1.005c.943.063 1.195.377 1.195.943 0 .502-.314 1.005-1.32 1.005-.314 0-.754-.063-1.005-.189v-.377c.189.063.503.126 1.005.126.691 0 .88-.314.88-.628s-.063-.503-.754-.566c-.942-.062-1.131-.44-1.131-.88 0-.439.314-1.004 1.257-1.004.314 0 .69.062.942.188v.377c-.251-.063-.503-.126-.942-.126-.629 0-.817.252-.817.566-.063.377.063.502.69.565zm3.645 1.948h-.314c-.566 0-1.068-.251-1.068-.88v-2.136h-.691v-.188l.69-.189v-.88l.44-.125v1.068h1.006v.377h-1.005v2.073c0 .377.188.566.628.566h.251zm1.948-3.016c-.44 0-.754.063-1.006.189v-.377c.314-.126.691-.189 1.006-.189 1.005 0 1.256.44 1.256 1.131v2.262h-.251l-.126-.251c-.314.188-.69.314-1.005.314-.88 0-1.131-.503-1.131-1.068 0-.566.314-1.006 1.194-1.006l.88-.062v-.189c-.064-.565-.252-.754-.817-.754zm-.126 1.257c-.44.063-.691.314-.691.69 0 .315.063.63.69.63.378 0 .566-.127.88-.252v-1.131l-.88.063zm2.513-2.953c.188 0 .314.126.314.314s-.126.314-.314.314-.314-.126-.314-.314c0-.126.126-.314.314-.314zm-.188 4.02v-2.638h.44v2.702c0 .25.062.314.25.314v.377c-.44-.063-.69-.252-.69-.754zm3.518-1.758c0-.44-.251-.566-.691-.566s-.629.063-.88.189v2.764h-.44v-3.33h.252l.125.252c.314-.252.629-.315 1.006-.315.816 0 1.13.377 1.13 1.006v2.387h-.44v-2.387zm2.45-.566c-.44 0-.754.063-1.005.189v-.377c.314-.126.691-.189 1.005-.189 1.005 0 1.257.44 1.257 1.131v2.262h-.252l-.125-.251c-.314.188-.691.314-1.006.314-.88 0-1.13-.503-1.13-1.068 0-.566.314-1.006 1.193-1.006l.88-.062v-.189c-.063-.565-.189-.754-.817-.754zm-.126 1.257c-.44.063-.69.314-.69.69 0 .315.062.63.69.63.377 0 .566-.127.88-.252v-1.131zm4.964.063c0 .942-.314 1.696-1.382 1.696-.377 0-.691-.126-1.006-.314l-.125.251h-.252v-4.963h.44v1.885c.314-.189.628-.252.943-.252 1.068-.063 1.382.754 1.382 1.697zm-2.262-1.131v2.199c.251.125.503.188.942.188.817 0 .88-.628.88-1.32 0-.69-.126-1.319-.88-1.319-.44.063-.69.126-.942.252zm3.141 2.136v-4.335h.44v4.335c0 .251.063.314.251.314v.377c-.44 0-.69-.189-.69-.691zm2.828-2.765c1.13 0 1.256.754 1.256 1.697v.188h-2.199c0 .566.189 1.131.943 1.131.502 0 .754-.063 1.068-.188v.377c-.377.188-.754.188-1.068.188-1.131 0-1.383-.754-1.383-1.696 0-.943.252-1.697 1.383-1.697zm-.943 1.571h1.697c0-.565-.063-1.13-.817-1.13-.691 0-.817.565-.88 1.13zm4.398 1.822v-4.963h1.382c1.634 0 2.074 1.068 2.074 2.513 0 1.382-.44 2.513-2.074 2.513zm.44-.44h.942c1.194 0 1.571-.88 1.571-2.073 0-1.194-.377-2.073-1.57-2.073h-.943zm4.963-2.953c1.131 0 1.257.754 1.257 1.697v.188h-2.2c0 .566.19 1.131.943 1.131.503 0 .754-.063 1.068-.188v.377c-.377.188-.754.188-1.068.188-1.13 0-1.382-.754-1.382-1.696 0-.943.251-1.697 1.382-1.697zm-.942 1.571h1.696c0-.565-.063-1.13-.817-1.13-.753 0-.88.565-.88 1.13zm3.141-1.508.943 2.702.942-2.702h.503l-1.32 3.393h-.314l-1.32-3.393zm4.147-.063c1.13 0 1.256.754 1.256 1.697v.188h-2.199c0 .566.189 1.131.943 1.131.502 0 .754-.063 1.068-.188v.377c-.377.188-.754.188-1.068.188-1.131 0-1.382-.754-1.382-1.696 0-.943.25-1.697 1.382-1.697zm-.943 1.571h1.697c0-.565-.063-1.13-.817-1.13s-.88.565-.88 1.13zm3.079 1.194v-4.335h.44v4.335c0 .251.063.314.251.314v.377c-.44 0-.691-.189-.691-.691zm2.827.69c-1.13 0-1.382-.69-1.382-1.695 0-1.006.251-1.697 1.382-1.697s1.382.691 1.382 1.697c0 1.005-.25 1.696-1.382 1.696zm0-3.015c-.88 0-.942.566-.942 1.32 0 .753.063 1.319.942 1.319.88 0 .943-.566.943-1.32 0-.753-.126-1.319-.943-1.319zm2.639 2.765v1.884h-.44v-4.963h.251l.126.251c.314-.188.691-.314 1.005-.314 1.068 0 1.383.754 1.383 1.697 0 .942-.315 1.696-1.383 1.696-.314 0-.69-.063-.942-.251zm1.822-1.445c0-.629-.126-1.32-.88-1.32-.44 0-.69.063-.942.189v2.199c.251.125.503.188.942.188.754.063.88-.628.88-1.256zm5.152-.754c0-.44-.252-.566-.629-.566-.44 0-.628.063-.88.189 0 .125.064.188.064.314v2.387h-.44v-2.324c0-.44-.251-.566-.628-.566s-.629.063-.88.189v2.764h-.44v-3.33h.252l.125.252c.314-.252.691-.315.943-.315.44 0 .754.126.942.377.314-.25.691-.377 1.005-.377.691 0 1.068.315 1.068 1.006v2.387h-.44zm2.639-1.006c1.13 0 1.256.754 1.256 1.697v.188h-2.199c0 .566.189 1.131.943 1.131.502 0 .753-.063 1.068-.188v.377c-.377.188-.754.188-1.068.188-1.131 0-1.383-.754-1.383-1.696 0-.943.252-1.697 1.383-1.697zm-.943 1.571h1.696c0-.565-.062-1.13-.816-1.13s-.88.565-.88 1.13zm4.963-.565c0-.44-.25-.566-.69-.566s-.629.063-.88.189v2.764h-.44v-3.33h.251l.126.252c.314-.252.628-.315 1.005-.315.817 0 1.131.377 1.131 1.006v2.387h-.44v-2.387zm3.016 2.45h-.314c-.565 0-1.068-.251-1.068-.88v-2.136h-.691v-.188l.691-.189v-.88l.44-.125v1.068h1.005v.377h-1.005v2.073c0 .377.188.566.628.566h.251z"
         fill="#000"
         id="path38" />
    </g>
  </g>
</svg>
